<svg width="145" height="54" viewBox="0 0 145 54" fill="none" xmlns="http://www.w3.org/2000/svg">
<path d="M10.1221 25.4023C9.65332 25.3242 9.16992 25.2852 8.67188 25.2852C7.04102 25.2852 5.94238 25.9102 5.37598 27.1602V38H1.81641V22.1504H5.21484L5.30273 23.9229C6.16211 22.5459 7.35352 21.8574 8.87695 21.8574C9.38477 21.8574 9.80469 21.9258 10.1367 22.0625L10.1221 25.4023ZM19.0576 38.293C16.8018 38.293 14.9707 37.585 13.5645 36.1689C12.168 34.7432 11.4697 32.8486 11.4697 30.4854V30.0459C11.4697 28.4639 11.7725 27.0527 12.3779 25.8125C12.9932 24.5625 13.8525 23.5908 14.9561 22.8975C16.0596 22.2041 17.29 21.8574 18.6475 21.8574C20.8057 21.8574 22.4707 22.5459 23.6426 23.9229C24.8242 25.2998 25.415 27.248 25.415 29.7676V31.2031H15.0586C15.166 32.5117 15.6006 33.5469 16.3623 34.3086C17.1338 35.0703 18.1006 35.4512 19.2627 35.4512C20.8936 35.4512 22.2217 34.792 23.2471 33.4736L25.166 35.3047C24.5312 36.252 23.6816 36.9893 22.6172 37.5166C21.5625 38.0342 20.376 38.293 19.0576 38.293ZM18.6328 24.7139C17.6562 24.7139 16.8652 25.0557 16.2598 25.7393C15.6641 26.4229 15.2832 27.375 15.1172 28.5957H21.8994V28.332C21.8213 27.1406 21.5039 26.2422 20.9473 25.6367C20.3906 25.0215 19.6191 24.7139 18.6328 24.7139ZM27.5684 29.958C27.5684 27.4971 28.1445 25.5342 29.2969 24.0693C30.459 22.5947 31.9971 21.8574 33.9111 21.8574C35.7178 21.8574 37.1387 22.4873 38.1738 23.7471L38.335 22.1504H41.543V37.5166C41.543 39.5967 40.8936 41.2373 39.5947 42.4385C38.3057 43.6396 36.5625 44.2402 34.3652 44.2402C33.2031 44.2402 32.0654 43.9961 30.9521 43.5078C29.8486 43.0293 29.0088 42.3994 28.4326 41.6182L30.1172 39.4795C31.2109 40.7783 32.5586 41.4277 34.1602 41.4277C35.3418 41.4277 36.2744 41.1055 36.958 40.4609C37.6416 39.8262 37.9834 38.8887 37.9834 37.6484V36.5791C36.958 37.7217 35.5908 38.293 33.8818 38.293C32.0264 38.293 30.5078 37.5557 29.3262 36.0811C28.1543 34.6064 27.5684 32.5654 27.5684 29.958ZM31.1133 30.2656C31.1133 31.8574 31.4355 33.1123 32.0801 34.0303C32.7344 34.9385 33.6377 35.3926 34.79 35.3926C36.2256 35.3926 37.29 34.7773 37.9834 33.5469V26.5742C37.3096 25.373 36.2549 24.7725 34.8193 24.7725C33.6475 24.7725 32.7344 25.2363 32.0801 26.1641C31.4355 27.0918 31.1133 28.459 31.1133 30.2656ZM48.999 38H45.4395V22.1504H48.999V38ZM45.2197 18.0342C45.2197 17.4873 45.3906 17.0332 45.7324 16.6719C46.084 16.3105 46.582 16.1299 47.2266 16.1299C47.8711 16.1299 48.3691 16.3105 48.7207 16.6719C49.0723 17.0332 49.248 17.4873 49.248 18.0342C49.248 18.5713 49.0723 19.0205 48.7207 19.3818C48.3691 19.7334 47.8711 19.9092 47.2266 19.9092C46.582 19.9092 46.084 19.7334 45.7324 19.3818C45.3906 19.0205 45.2197 18.5713 45.2197 18.0342ZM61.7725 33.6934C61.7725 33.0586 61.5088 32.5752 60.9814 32.2432C60.4639 31.9111 59.5996 31.6182 58.3887 31.3643C57.1777 31.1104 56.167 30.7881 55.3564 30.3975C53.5791 29.5381 52.6904 28.293 52.6904 26.6621C52.6904 25.2949 53.2666 24.1523 54.4189 23.2344C55.5713 22.3164 57.0361 21.8574 58.8135 21.8574C60.708 21.8574 62.2363 22.3262 63.3984 23.2637C64.5703 24.2012 65.1562 25.417 65.1562 26.9111H61.5967C61.5967 26.2275 61.3428 25.6611 60.835 25.2119C60.3271 24.7529 59.6533 24.5234 58.8135 24.5234C58.0322 24.5234 57.3926 24.7041 56.8945 25.0654C56.4062 25.4268 56.1621 25.9102 56.1621 26.5156C56.1621 27.0625 56.3916 27.4873 56.8506 27.79C57.3096 28.0928 58.2373 28.4004 59.6338 28.7129C61.0303 29.0156 62.124 29.3818 62.915 29.8115C63.7158 30.2314 64.3066 30.7393 64.6875 31.335C65.0781 31.9307 65.2734 32.6533 65.2734 33.5029C65.2734 34.9287 64.6826 36.0859 63.501 36.9746C62.3193 37.8535 60.7715 38.293 58.8574 38.293C57.5586 38.293 56.4014 38.0586 55.3857 37.5898C54.3701 37.1211 53.5791 36.4766 53.0127 35.6562C52.4463 34.8359 52.1631 33.9521 52.1631 33.0049H55.6201C55.6689 33.8447 55.9863 34.4941 56.5723 34.9531C57.1582 35.4023 57.9346 35.627 58.9014 35.627C59.8389 35.627 60.5518 35.4512 61.04 35.0996C61.5283 34.7383 61.7725 34.2695 61.7725 33.6934ZM72.8467 18.2979V22.1504H75.6445V24.7871H72.8467V33.6348C72.8467 34.2402 72.9639 34.6797 73.1982 34.9531C73.4424 35.2168 73.8721 35.3486 74.4873 35.3486C74.8975 35.3486 75.3125 35.2998 75.7324 35.2021V37.9561C74.9219 38.1807 74.1406 38.293 73.3887 38.293C70.6543 38.293 69.2871 36.7842 69.2871 33.7666V24.7871H66.6797V22.1504H69.2871V18.2979H72.8467ZM85.3564 38.293C83.1006 38.293 81.2695 37.585 79.8633 36.1689C78.4668 34.7432 77.7686 32.8486 77.7686 30.4854V30.0459C77.7686 28.4639 78.0713 27.0527 78.6768 25.8125C79.292 24.5625 80.1514 23.5908 81.2549 22.8975C82.3584 22.2041 83.5889 21.8574 84.9463 21.8574C87.1045 21.8574 88.7695 22.5459 89.9414 23.9229C91.123 25.2998 91.7139 27.248 91.7139 29.7676V31.2031H81.3574C81.4648 32.5117 81.8994 33.5469 82.6611 34.3086C83.4326 35.0703 84.3994 35.4512 85.5615 35.4512C87.1924 35.4512 88.5205 34.792 89.5459 33.4736L91.4648 35.3047C90.8301 36.252 89.9805 36.9893 88.916 37.5166C87.8613 38.0342 86.6748 38.293 85.3564 38.293ZM84.9316 24.7139C83.9551 24.7139 83.1641 25.0557 82.5586 25.7393C81.9629 26.4229 81.582 27.375 81.416 28.5957H88.1982V28.332C88.1201 27.1406 87.8027 26.2422 87.2461 25.6367C86.6895 25.0215 85.918 24.7139 84.9316 24.7139ZM102.788 25.4023C102.319 25.3242 101.836 25.2852 101.338 25.2852C99.707 25.2852 98.6084 25.9102 98.042 27.1602V38H94.4824V22.1504H97.8809L97.9688 23.9229C98.8281 22.5459 100.02 21.8574 101.543 21.8574C102.051 21.8574 102.471 21.9258 102.803 22.0625L102.788 25.4023ZM113.335 25.4023C112.866 25.3242 112.383 25.2852 111.885 25.2852C110.254 25.2852 109.155 25.9102 108.589 27.1602V38H105.029V22.1504H108.428L108.516 23.9229C109.375 22.5459 110.566 21.8574 112.09 21.8574C112.598 21.8574 113.018 21.9258 113.35 22.0625L113.335 25.4023ZM115.254 34.25C115.918 34.25 116.431 34.4404 116.792 34.8213C117.153 35.1924 117.334 35.6611 117.334 36.2275C117.334 36.7842 117.153 37.248 116.792 37.6191C116.431 37.9805 115.918 38.1611 115.254 38.1611C114.619 38.1611 114.116 37.9805 113.745 37.6191C113.374 37.2578 113.188 36.7939 113.188 36.2275C113.188 35.6611 113.369 35.1924 113.73 34.8213C114.092 34.4404 114.6 34.25 115.254 34.25ZM125.2 38H121.641V22.1504H125.2V38ZM121.421 18.0342C121.421 17.4873 121.592 17.0332 121.934 16.6719C122.285 16.3105 122.783 16.1299 123.428 16.1299C124.072 16.1299 124.57 16.3105 124.922 16.6719C125.273 17.0332 125.449 17.4873 125.449 18.0342C125.449 18.5713 125.273 19.0205 124.922 19.3818C124.57 19.7334 124.072 19.9092 123.428 19.9092C122.783 19.9092 122.285 19.7334 121.934 19.3818C121.592 19.0205 121.421 18.5713 121.421 18.0342ZM128.423 29.9287C128.423 28.376 128.73 26.9795 129.346 25.7393C129.961 24.4893 130.825 23.5322 131.938 22.8682C133.052 22.1943 134.331 21.8574 135.776 21.8574C137.915 21.8574 139.648 22.5459 140.977 23.9229C142.314 25.2998 143.037 27.126 143.145 29.4014L143.159 30.2363C143.159 31.7988 142.856 33.1953 142.251 34.4258C141.655 35.6562 140.796 36.6084 139.673 37.2822C138.56 37.9561 137.271 38.293 135.806 38.293C133.569 38.293 131.777 37.5508 130.43 36.0664C129.092 34.5723 128.423 32.585 128.423 30.1045V29.9287ZM131.982 30.2363C131.982 31.8672 132.319 33.1465 132.993 34.0742C133.667 34.9922 134.604 35.4512 135.806 35.4512C137.007 35.4512 137.939 34.9824 138.604 34.0449C139.277 33.1074 139.614 31.7354 139.614 29.9287C139.614 28.3271 139.268 27.0576 138.574 26.1201C137.891 25.1826 136.958 24.7139 135.776 24.7139C134.614 24.7139 133.691 25.1777 133.008 26.1055C132.324 27.0234 131.982 28.4004 131.982 30.2363Z" fill="white"/>
</svg>
